<?xml version="1.0" encoding="UTF-8" standalone="yes"?><svg xmlns="http://www.w3.org/2000/svg" xmlns:xlink="http://www.w3.org/1999/xlink" height="181px" style="width:582px;height:181px;" version="1.1" viewBox="0 0 582 181" width="582px"><defs><filter height="300%" id="f1" width="300%" x="-1" y="-1"><feGaussianBlur result="blurOut" stdDeviation="2.0"/><feColorMatrix in="blurOut" result="blurOut2" type="matrix" values="0 0 0 0 0 0 0 0 0 0 0 0 0 0 0 0 0 0 .4 0"/><feOffset dx="4.0" dy="4.0" in="blurOut2" result="blurOut3"/><feBlend in="SourceGraphic" in2="blurOut3" mode="normal"/></filter></defs><g><rect fill="#FEFECE" filter="url(#f1)" height="49.25" style="stroke: #A80036; stroke-width: 1.5;" width="96" x="477.5" y="8"/><text fill="#000000" font-family="sans-serif" font-size="12" lengthAdjust="spacingAndGlyphs" textLength="47" x="502" y="21.1387">stapel1</text><line style="stroke: #A80036; stroke-width: 1.5;" x1="478.5" x2="572.5" y1="25.9688" y2="25.9688"/><text fill="#000000" font-family="sans-serif" font-size="10" lengthAdjust="spacingAndGlyphs" textLength="84" x="483.5" y="39.251">oben='Falbkatze'</text><text fill="#000000" font-family="sans-serif" font-size="10" lengthAdjust="spacingAndGlyphs" textLength="81" x="483.5" y="50.8916">rest='NOTHING'</text><rect fill="#FEFECE" filter="url(#f1)" height="37.6094" style="stroke: #A80036; stroke-width: 1.5;" width="110" x="332.5" y="13.5"/><text fill="#000000" font-family="sans-serif" font-size="12" lengthAdjust="spacingAndGlyphs" textLength="47" x="364" y="26.6387">stapel2</text><line style="stroke: #A80036; stroke-width: 1.5;" x1="333.5" x2="441.5" y1="31.4688" y2="31.4688"/><text fill="#000000" font-family="sans-serif" font-size="10" lengthAdjust="spacingAndGlyphs" textLength="98" x="338.5" y="44.751">oben='Nebelparder'</text><rect fill="#FEFECE" filter="url(#f1)" height="37.6094" style="stroke: #A80036; stroke-width: 1.5;" width="98" x="199.5" y="13.5"/><text fill="#000000" font-family="sans-serif" font-size="12" lengthAdjust="spacingAndGlyphs" textLength="47" x="225" y="26.6387">stapel3</text><line style="stroke: #A80036; stroke-width: 1.5;" x1="200.5" x2="296.5" y1="31.4688" y2="31.4688"/><text fill="#000000" font-family="sans-serif" font-size="10" lengthAdjust="spacingAndGlyphs" textLength="86" x="205.5" y="44.751">oben='Manguste'</text><rect fill="#FEFECE" filter="url(#f1)" height="37.6094" style="stroke: #A80036; stroke-width: 1.5;" width="101" x="63" y="13.5"/><text fill="#000000" font-family="sans-serif" font-size="12" lengthAdjust="spacingAndGlyphs" textLength="39" x="94" y="26.6387">stapel</text><line style="stroke: #A80036; stroke-width: 1.5;" x1="64" x2="163" y1="31.4688" y2="31.4688"/><text fill="#000000" font-family="sans-serif" font-size="10" lengthAdjust="spacingAndGlyphs" textLength="89" x="69" y="44.751">oben='Sandkatze'</text><polygon fill="#FBFB77" filter="url(#f1)" points="6,117,6,172.3984,491,172.3984,491,127,481,117,6,117" style="stroke: #A80036; stroke-width: 1.0;"/><polygon fill="#FBFB77" points="6,117,6,172.3984,491,172.3984,491,127,481,117,252.5,117,248.5,51.664,244.5,117,6,117" style="stroke: #A80036; stroke-width: 1.0;"/><line style="stroke: #A80036; stroke-width: 1.0;" x1="481" x2="481" y1="117" y2="127"/><line style="stroke: #A80036; stroke-width: 1.0;" x1="491" x2="481" y1="127" y2="127"/><text fill="#000000" font-family="sans-serif" font-size="13" lengthAdjust="spacingAndGlyphs" textLength="300" x="12" y="134.0669">Dieser Waggon wird neu eingekoppelt zwischen</text><text fill="#000000" font-family="sans-serif" font-size="13" lengthAdjust="spacingAndGlyphs" textLength="330" x="12" y="149.1997">die Lokokomotive und den vorigen zweiten Waggon.</text><text fill="#000000" font-family="sans-serif" font-size="13" lengthAdjust="spacingAndGlyphs" textLength="464" x="12" y="164.3325">Er bekommt den Inhalt (Attribut oben), den vorher die Lokomotive hatte.</text><path d="M310.67,32.5 C317.91,32.5 325.15,32.5 332.39,32.5 " fill="none" style="stroke: #A80036; stroke-width: 1.0;"/><polygon fill="#A80036" points="297.639,32.5,303.639,36.5,309.639,32.5,303.639,28.5,297.639,32.5" style="stroke: #A80036; stroke-width: 1.0;"/><text fill="#000000" font-family="sans-serif" font-size="13" lengthAdjust="spacingAndGlyphs" textLength="25" x="305.5365" y="28.6395">rest</text><path d="M455.994,32.5 C463.109,32.5 470.224,32.5 477.339,32.5 " fill="none" style="stroke: #A80036; stroke-width: 1.0;"/><polygon fill="#A80036" points="442.754,32.5,448.754,36.5,454.754,32.5,448.754,28.5,442.754,32.5" style="stroke: #A80036; stroke-width: 1.0;"/><text fill="#000000" font-family="sans-serif" font-size="13" lengthAdjust="spacingAndGlyphs" textLength="25" x="450.5881" y="28.73">rest</text><path d="M177.35,32.5 C184.697,32.5 192.044,32.5 199.391,32.5 " fill="none" style="stroke: #A80036; stroke-width: 1.0;"/><polygon fill="#A80036" points="164.125,32.5,170.125,36.5,176.125,32.5,170.125,28.5,164.125,32.5" style="stroke: #A80036; stroke-width: 1.0;"/><text fill="#000000" font-family="sans-serif" font-size="13" lengthAdjust="spacingAndGlyphs" textLength="25" x="171.8184" y="28.6847">rest</text></g></svg>