<?xml version="1.0" encoding="UTF-8" standalone="yes"?><svg xmlns="http://www.w3.org/2000/svg" xmlns:xlink="http://www.w3.org/1999/xlink" height="196px" style="width:503px;height:196px;" version="1.1" viewBox="0 0 503 196" width="503px"><defs><filter height="300%" id="f1" width="300%" x="-1" y="-1"><feGaussianBlur result="blurOut" stdDeviation="2.0"/><feColorMatrix in="blurOut" result="blurOut2" type="matrix" values="0 0 0 0 0 0 0 0 0 0 0 0 0 0 0 0 0 0 .4 0"/><feOffset dx="4.0" dy="4.0" in="blurOut2" result="blurOut3"/><feBlend in="SourceGraphic" in2="blurOut3" mode="normal"/></filter></defs><g><rect fill="#FEFECE" filter="url(#f1)" height="49.25" style="stroke: #A80036; stroke-width: 1.5;" width="96" x="398" y="8"/><text fill="#000000" font-family="sans-serif" font-size="12" lengthAdjust="spacingAndGlyphs" textLength="47" x="422.5" y="21.1387">stapel1</text><line style="stroke: #A80036; stroke-width: 1.5;" x1="399" x2="493" y1="25.9688" y2="25.9688"/><text fill="#000000" font-family="sans-serif" font-size="10" lengthAdjust="spacingAndGlyphs" textLength="84" x="404" y="39.251">oben='Falbkatze'</text><text fill="#000000" font-family="sans-serif" font-size="10" lengthAdjust="spacingAndGlyphs" textLength="81" x="404" y="50.8916">rest='NOTHING'</text><rect fill="#FEFECE" filter="url(#f1)" height="37.6094" style="stroke: #A80036; stroke-width: 1.5;" width="110" x="253" y="13.5"/><text fill="#000000" font-family="sans-serif" font-size="12" lengthAdjust="spacingAndGlyphs" textLength="47" x="284.5" y="26.6387">stapel2</text><line style="stroke: #A80036; stroke-width: 1.5;" x1="254" x2="362" y1="31.4688" y2="31.4688"/><text fill="#000000" font-family="sans-serif" font-size="10" lengthAdjust="spacingAndGlyphs" textLength="98" x="259" y="44.751">oben='Nebelparder'</text><rect fill="#FEFECE" filter="url(#f1)" height="37.6094" style="stroke: #A80036; stroke-width: 1.5;" width="98" x="120" y="13.5"/><text fill="#000000" font-family="sans-serif" font-size="12" lengthAdjust="spacingAndGlyphs" textLength="39" x="149.5" y="26.6387">stapel</text><line style="stroke: #A80036; stroke-width: 1.5;" x1="121" x2="217" y1="31.4688" y2="31.4688"/><text fill="#000000" font-family="sans-serif" font-size="10" lengthAdjust="spacingAndGlyphs" textLength="86" x="126" y="44.751">oben='Manguste'</text><polygon fill="#FBFB77" filter="url(#f1)" points="6,117,6,187.5313,332,187.5313,332,127,322,117,6,117" style="stroke: #A80036; stroke-width: 1.0;"/><polygon fill="#FBFB77" points="6,117,6,187.5313,332,187.5313,332,127,322,117,173,117,169,51.679,165,117,6,117" style="stroke: #A80036; stroke-width: 1.0;"/><line style="stroke: #A80036; stroke-width: 1.0;" x1="322" x2="322" y1="117" y2="127"/><line style="stroke: #A80036; stroke-width: 1.0;" x1="332" x2="322" y1="127" y2="127"/><text fill="#000000" font-family="sans-serif" font-size="13" lengthAdjust="spacingAndGlyphs" textLength="239" x="12" y="134.0669">Das ist die Lokomotive, d.h. stapel ist</text><text fill="#000000" font-family="sans-serif" font-size="13" lengthAdjust="spacingAndGlyphs" textLength="264" x="12" y="149.1997">das objekt, auf das unsere Variable zeigt.</text><text fill="#000000" font-family="sans-serif" font-size="13" lengthAdjust="spacingAndGlyphs" textLength="305" x="12" y="164.3325">Wir können die Attribute des Objekts verändern,</text><text fill="#000000" font-family="sans-serif" font-size="13" lengthAdjust="spacingAndGlyphs" textLength="182" x="12" y="179.4653">aber nicht das Objekt selbst.</text><path d="M231.17,32.5 C238.41,32.5 245.65,32.5 252.89,32.5 " fill="none" style="stroke: #A80036; stroke-width: 1.0;"/><polygon fill="#A80036" points="218.139,32.5,224.139,36.5,230.139,32.5,224.139,28.5,218.139,32.5" style="stroke: #A80036; stroke-width: 1.0;"/><text fill="#000000" font-family="sans-serif" font-size="13" lengthAdjust="spacingAndGlyphs" textLength="25" x="226.0365" y="28.6395">rest</text><path d="M376.494,32.5 C383.609,32.5 390.724,32.5 397.839,32.5 " fill="none" style="stroke: #A80036; stroke-width: 1.0;"/><polygon fill="#A80036" points="363.254,32.5,369.254,36.5,375.254,32.5,369.254,28.5,363.254,32.5" style="stroke: #A80036; stroke-width: 1.0;"/><text fill="#000000" font-family="sans-serif" font-size="13" lengthAdjust="spacingAndGlyphs" textLength="25" x="371.0881" y="28.73">rest</text></g></svg>